<?xml version="1.0" standalone="no"?>
<!DOCTYPE svg PUBLIC "-//W3C//DTD SVG 1.1//EN" "http://www.w3.org/Graphics/SVG/1.1/DTD/svg11.dtd" >
<svg xmlns="http://www.w3.org/2000/svg">
<metadata>Generated by IcoMoon</metadata>
<defs>
<font id="nest" horiz-adv-x="1024">
<font-face units-per-em="1024" ascent="960" descent="-64" />
<missing-glyph horiz-adv-x="1024" />
<glyph unicode="&#x20;" horiz-adv-x="512" d="" />
<glyph unicode="&#xe900;" glyph-name="bas-014" d="M332.8 874.667h358.4c136.661 0 247.467-110.805 247.467-247.467v-358.4c0-136.683-110.805-247.467-247.467-247.467h-358.4c-136.661 0-247.467 110.784-247.467 247.467v358.4c0 136.661 110.805 247.467 247.467 247.467zM324.267 789.333c-84.831 0-153.6-68.769-153.6-153.6v0-375.467c0-84.831 68.769-153.6 153.6-153.6v0h375.467c84.831 0 153.6 68.769 153.6 153.6v0 375.467c0 84.831-68.769 153.6-153.6 153.6v0h-375.467zM736 725.333c29.455 0 53.333-23.878 53.333-53.333s-23.878-53.333-53.333-53.333v0c-29.455 0-53.333 23.878-53.333 53.333s23.878 53.333 53.333 53.333v0zM512 661.333c117.824 0 213.333-95.509 213.333-213.333s-95.509-213.333-213.333-213.333-213.333 95.509-213.333 213.333 95.509 213.333 213.333 213.333zM512 576c-70.692 0-128-57.308-128-128s57.308-128 128-128v0c70.692 0 128 57.308 128 128s-57.308 128-128 128v0z" />
<glyph unicode="&#xe901;" glyph-name="bas-016" d="M738.944 622.933c56.64 0 154.475-25.6 157.056-192v-332.8c0-7.68-5.141-12.8-12.864-12.8h-154.496c-7.723 0-12.864 5.12-12.864 12.8v294.4c0 25.6-5.163 46.080-18.027 58.88-25.749 28.16-74.667 20.48-110.72-12.8v-340.48c0-7.68-5.141-12.8-12.864-12.8h-154.496c-7.723 0-12.864 5.12-12.864 12.8v486.4c0 7.68 5.141 12.8 12.864 12.8h154.496c7.723 0 12.864-5.12 12.864-12.8v-10.24c36.053 25.6 95.275 48.64 151.893 48.64zM316.693 597.333c7.723 0 12.864-5.12 12.864-12.8v-486.4c0-7.68-5.141-12.8-12.864-12.8h-154.496c-7.723 0-12.864 5.12-12.864 12.8v486.4c0 7.68 5.141 12.8 12.864 12.8zM239.467 853.333c48.896 0 90.091-40.96 90.091-89.6s-41.173-89.6-90.112-89.6c-48.917 0-90.112 40.96-90.112 89.6s41.195 89.6 90.112 89.6z" />
<glyph unicode="&#xe902;" glyph-name="bas-015" d="M700.245 832c14.421 0 25.088-10.496 25.088-24.768v-99.093c0-14.293-10.645-24.789-25.088-24.789h-87.851c-20.693 0-37.653-16.747-37.653-37.163v-86.699h125.504c8.341 0 13.013-2.773 18.901-8.597 3.016-3.067 5.074-7.085 5.684-11.563l0.012-0.106c0.427-2.389 0.491-4.16 0.491-6.997l-0.384-2.987-2.219-8.768 2.603-0.597h-2.752l-22.72-89.749-0.96-2.517c-4.715-9.344-13.504-16.768-23.765-16.768h-100.395v-322.069c0-14.272-10.624-24.768-25.088-24.768h-100.395c-14.464 0-25.109 10.496-25.109 24.768v322.069h-100.395c-14.421 0-25.088 10.496-25.088 24.789v99.115c0 14.272 10.645 24.747 25.088 24.747h100.395v99.115c0 98.475 75.904 173.397 175.701 173.397h100.395z" />
<glyph unicode="&#xe903;" glyph-name="bas-001" d="M565.333 192c17.673 0 32-14.327 32-32s-14.327-32-32-32v0h-405.333c-17.673 0-32 14.327-32 32s14.327 32 32 32v0h405.333zM864 469.333c17.673 0 32-14.327 32-32s-14.327-32-32-32v0h-704c-17.673 0-32 14.327-32 32s14.327 32 32 32v0h704zM714.667 746.667c17.673 0 32-14.327 32-32s-14.327-32-32-32v0h-554.667c-17.673 0-32 14.327-32 32s14.327 32 32 32v0h554.667z" />
<glyph unicode="&#xe904;" glyph-name="bas-002" d="M274.197 736.213l237.803-237.781 237.803 237.781c6.37 6.012 14.983 9.707 24.459 9.707 19.7 0 35.669-15.97 35.669-35.669 0-9.471-3.691-18.079-9.713-24.466l0.017 0.018-237.803-237.803 237.803-237.803c6.449-6.451 10.437-15.363 10.437-25.205 0-19.691-15.963-35.653-35.653-35.653-9.848 0-18.763 3.993-25.216 10.448l-237.803 237.781-237.803-237.781c-6.37-6.012-14.983-9.707-24.459-9.707-19.7 0-35.669 15.97-35.669 35.669 0 9.471 3.691 18.079 9.713 24.466l-0.017-0.018 237.803 237.803-237.803 237.803c-6.449 6.451-10.437 15.363-10.437 25.205 0 19.691 15.963 35.653 35.653 35.653 9.848 0 18.763-3.993 25.216-10.448v0z" />
<glyph unicode="&#xe905;" glyph-name="bas-003" d="M245.345 746.676c0.001 17.669 14.324 31.992 31.993 31.992 6.379 0 12.322-1.867 17.313-5.085l-0.126 0.076 469.324-298.676c8.958-5.771 14.805-15.694 14.805-26.984s-5.847-21.213-14.679-26.908l-0.126-0.076-469.324-298.676c-4.864-3.141-10.807-5.008-17.187-5.008-17.669 0-31.993 14.323-31.993 31.992v0 597.352zM309.331 688.363v-480.726l377.745 240.363-377.745 240.363z" />
<glyph unicode="&#xe906;" glyph-name="bas-005" d="M671.915 195.285c6.671-7.336 10.755-17.127 10.755-27.872s-4.084-20.536-10.785-27.906l0.030 0.034c-6.421-7.101-15.668-11.544-25.952-11.544s-19.531 4.443-25.925 11.513l-0.027 0.030-289.259 280.576c-6.671 7.336-10.755 17.127-10.755 27.872s4.084 20.536 10.785 27.906l-0.030-0.034 289.259 280.597c6.421 7.101 15.668 11.544 25.952 11.544s19.531-4.443 25.925-11.513l0.027-0.030c6.671-7.336 10.755-17.127 10.755-27.872s-4.084-20.536-10.785-27.906l0.030 0.034-263.296-252.715 263.296-252.693z" />
<glyph unicode="&#xe907;" d="M836.285 960l-836.285-836.285 187.715-187.715 836.285 836.285z" />
<glyph unicode="&#xe908;" d="M0 772.285l187.715 187.715 836.285-836.285-187.715-187.715z" />
<glyph unicode="&#xe909;" glyph-name="bas-006" d="M512 768c-176 0-320-144-320-320s144-320 320-320 320 144 320 320-144 320-320 320zM512 192c-141.099 0-256 114.901-256 256s114.901 256 256 256 256-114.901 256-256-114.901-256-256-256zM512 436.907v128.427c0 17.673-14.327 32-32 32s-32-14.327-32-32v0-149.504c0-12.8 7.595-24.32 19.328-29.397l145.835-62.848c3.735-1.653 8.091-2.615 12.672-2.615 17.68 0 32.012 14.332 32.012 32.012 0 13.099-7.868 24.361-19.135 29.317l-0.205 0.081-126.507 54.485z" />
<glyph unicode="&#xe90a;" glyph-name="bas-008" d="M512 789.333c164.949 0 298.667-133.718 298.667-298.667v0c0-109.952-99.541-245.077-298.667-405.333-199.125 160.256-298.667 295.381-298.667 405.333 0 164.949 133.718 298.667 298.667 298.667v0zM512 725.333c-129.603 0-234.667-105.064-234.667-234.667v0c0-78.464 76.629-188.331 234.667-322.347l16.939 14.507c146.56 127.445 217.728 232.235 217.728 307.84 0 129.603-105.064 234.667-234.667 234.667v0zM512 597.333c47.128 0 85.333-38.205 85.333-85.333s-38.205-85.333-85.333-85.333v0c-47.128 0-85.333 38.205-85.333 85.333s38.205 85.333 85.333 85.333v0z" />
<glyph unicode="&#xe90b;" glyph-name="bas-007" d="M672 810.667c9.813 0 17.749-7.979 17.749-17.792v-35.541h53.333c48.981 0 88.875-39.851 88.917-88.875v-451.584c-0.073-49.070-39.844-88.826-88.913-88.875h-462.17c-49.073 0.049-88.845 39.805-88.917 88.868v451.548c0 49.024 39.893 88.917 88.917 88.917h53.333v35.541c0.663 9.282 8.356 16.561 17.749 16.561s17.086-7.279 17.746-16.503l0.003-0.057v-35.541h284.459v35.541c0 9.813 7.936 17.792 17.749 17.792zM768 522.667h-512v-305.792c0-12.288 9.088-22.613 20.907-24.533l4.011-0.341h462.165c13.653 0 24.917 11.221 24.917 24.875v305.792zM743.083 693.333h-462.165c-13.742-0.048-24.869-11.175-24.917-24.913v-81.754h512v81.749c-0.063 12.318-9.010 22.528-20.758 24.555l-0.149 0.021-4.011 0.341z" />
<glyph unicode="&#xe90c;" glyph-name="bas-020" d="M416 789.333c135.488 0 245.333-109.845 245.333-245.333 0-54.955-18.069-105.707-48.597-146.603 2.581-1.408 5.035-3.2 7.232-5.419l241.344-241.344c5.795-5.792 9.379-13.795 9.379-22.635 0-17.675-14.328-32.003-32.003-32.003-8.835 0-16.833 3.58-22.624 9.368l-241.365 241.365c-1.818 1.813-3.42 3.842-4.763 6.045l-0.080 0.141c-41.544-33.787-95.102-54.251-153.441-54.251-0.146 0-0.292 0-0.438 0h0.022c-135.488 0-245.333 109.845-245.333 245.333s109.845 245.333 245.333 245.333zM416 725.333c-100.148 0-181.333-81.186-181.333-181.333s81.186-181.333 181.333-181.333v0c100.148 0 181.333 81.186 181.333 181.333s-81.186 181.333-181.333 181.333v0z" />
<glyph unicode="&#xe90d;" horiz-adv-x="1293" d="M0 906.105v-916.211l754.526 458.105z" />
<glyph unicode="&#xe90e;" horiz-adv-x="1293" d="M538.947 906.105v-916.211l754.526 458.105z" />
<glyph unicode="&#xe90f;" horiz-adv-x="1671" d="M0 448c0.015 74.416 60.345 134.737 134.764 134.737 74.428 0 134.764-60.336 134.764-134.764 0-0.010 0-0.019 0-0.029v0.002c-0.015-74.416-60.345-134.737-134.764-134.737-74.428 0-134.764 60.336-134.764 134.764 0 0.010 0 0.019 0 0.029v-0.002z" />
<glyph unicode="&#xe910;" horiz-adv-x="1671" d="M1158.737 746.469c-164.826-0.184-298.393-133.752-298.577-298.559v-0.017c0.276-164.745 133.815-298.208 298.562-298.361h0.015c164.781 0.153 298.332 133.647 298.577 298.392v0.023c-0.184 164.826-133.752 298.393-298.559 298.577h-0.017zM1158.737-64c-282.355 0-512 229.753-512 511.946 0 282.301 229.645 512.054 512 512.054s512-229.753 512-512.054c0-282.193-229.645-511.946-512-511.946z" />
<glyph unicode="&#xe911;" glyph-name="bas-021" d="M700.476 523.776h0.542c-0.347-0.019-0.753-0.030-1.162-0.030-0.015 0-0.030 0-0.045 0h-1.926l-1.626 0.181-0.361 0.060-0.843 0.151-0.422 0.060-93.304 19.095c-10.365 2.19-18.032 11.262-18.032 22.124 0 12.475 10.113 22.588 22.588 22.588 0.516 0 1.028-0.017 1.536-0.051l-0.069 0.004 3.012-0.422 43.068-8.764c-36.504 40.861-89.352 66.463-148.179 66.463-109.441 0-198.188-88.606-198.415-197.995v-0.022c-0.017-12.462-10.124-22.558-22.588-22.558-12.475 0-22.588 10.113-22.588 22.588 0 0.011 0 0.021 0 0.032v-0.002c0.286 134.315 109.236 243.089 243.591 243.089 68.017 0 129.523-27.877 173.716-72.829l0.034-0.034 0.873 25.6c0.384 12.175 10.345 21.898 22.578 21.898 11.691 0 21.308-8.882 22.47-20.267l0.008-0.096 0.090-3.072-3.283-96.015v-0.301l-0.151-1.717-0.211-1.325 0.181 1.024-0.060-0.392c-0.062-0.346-0.104-0.55-0.148-0.752l0.028 0.15-0.090-0.452c-0.14-0.712-0.275-1.269-0.431-1.818l0.039 0.161-0.211-0.723-0.632-1.717c-0.973-2.414-2.285-4.489-3.902-6.283l0.017 0.019-0.753-0.813-0.542-0.542-0.542-0.512c-2.104-1.938-4.611-3.475-7.377-4.47l-0.152-0.048-1.446-0.452c-0.792-0.237-1.759-0.448-2.749-0.589l-0.112-0.013-1.867-0.211h-0.151zM334.908 366.803l93.304-19.095c10.365-2.19 18.032-11.262 18.032-22.124 0-12.475-10.113-22.588-22.588-22.588-0.516 0-1.028 0.017-1.536 0.051l0.069-0.004-3.012 0.392-43.068 8.794c36.504-40.861 89.352-66.463 148.179-66.463 109.441 0 198.188 88.606 198.415 197.995v0.022c0.026 12.456 10.129 22.543 22.588 22.543 12.475 0 22.588-10.113 22.588-22.588 0-0.016 0-0.032 0-0.048v0.002c-0.286-134.315-109.236-243.089-243.591-243.089-68.017 0-129.523 27.877-173.716 72.829l-0.034 0.034-0.873-25.6c-0.512-12.069-10.42-21.66-22.569-21.66-11.618 0-21.187 8.771-22.447 20.052l-0.009 0.102-0.12 3.042 3.283 96.045v0.301l0.151 1.717 0.241 1.325 0.060 0.422c0.853 4.001 2.647 7.493 5.143 10.358l-0.023-0.027 0.753 0.813c0.743 0.762 1.529 1.472 2.358 2.129l0.051 0.039 1.054 0.753c2.232 1.524 4.837 2.707 7.636 3.399l0.165 0.034c0.403 0.097 0.965 0.202 1.534 0.286l0.123 0.015 1.687 0.181 2.409 0.060 0.512-0.030 1.416-0.12 0.211-0.030 0.392-0.060 1.235-0.211z" />
<glyph unicode="&#xe912;" glyph-name="bas-023" d="M507.179 532.48v-168.96s162.069 0.213 228.053 0.213c-35.712-109.547-91.307-169.195-228.053-169.195-138.411 0-246.421 113.493-246.421 253.461 0 139.989 108.011 253.461 246.421 253.461 73.173 0 120.448-26.027 163.797-62.272 34.688 35.093 31.787 40.107 120.085 124.416-74.944 69.035-174.549 111.061-283.883 111.061-232.96 0-421.845-191.019-421.845-426.667s188.864-426.667 421.845-426.667c348.245 0 433.365 306.688 405.141 511.147h-405.12z" />
<glyph unicode="&#xe913;" glyph-name="bas-013" d="M930.517 728.704c-5.888 5.973-11.797 5.973-17.707 2.987-8.853-2.987-20.651-8.96-32.448-14.912 11.797 17.899 20.651 38.763 23.595 56.64 2.965 5.973 0 11.947-5.888 14.912-2.56 1.408-5.61 2.236-8.853 2.236s-6.294-0.828-8.95-2.285l0.097 0.049c-29.525-17.877-70.827-32.789-85.589-35.776-32.469 26.837-73.792 41.749-112.149 41.749-50.176 0-97.387-20.885-135.765-56.661-35.413-35.755-56.064-83.456-56.064-137.109-144.619 14.891-230.187 104.32-298.091 187.797-2.944 2.987-8.853 5.973-11.797 5.973-5.909 0-8.853-2.987-11.797-5.973-41.323-68.565-32.469-137.131-23.616-169.92 5.909-23.851 14.763-41.728 26.56-59.627-14.763 5.973-26.56 11.947-38.357 23.851-2.965 2.987-11.819 2.987-14.763 2.987-5.303-2.796-8.857-8.272-8.857-14.578 0-0.117 0.001-0.234 0.004-0.351v0.017c0-86.443 59.029-143.083 106.24-172.907-8.853 2.987-17.707 2.987-29.504 8.96-5.909 2.987-11.819 0-14.763-2.987s-5.909-11.947-2.944-14.912c26.56-62.592 85.568-110.293 150.507-122.24-59.029-35.755-153.472-56.619-224.299-50.667-5.909 0-14.763-2.987-14.763-8.939-2.944-5.973 0-14.912 5.909-17.877 88.533-50.688 182.976-77.504 274.475-77.504 144.597 0 289.216 65.579 389.547 181.845 88.533 98.347 135.765 223.573 126.933 333.867 14.72 11.947 23.595 32.789 35.413 53.653 5.888 8.96 11.797 20.885 17.707 29.824 2.944 5.973 2.944 14.912 0 17.877z" />
<glyph unicode="&#xe914;" glyph-name="bas-025" d="M938.667 609.643v-391.403c0-8.597-2.923-15.851-8.683-21.547-5.76-5.739-12.8-8.576-21.12-8.576h-311.531v259.947l58.325-45.909c3.712-3.179 8.341-4.693 13.803-4.693 5.397 0 10.091 1.515 14.187 4.736l255.019 207.445zM597.355 685.163h311.509c7.68 0 14.315-2.368 19.776-7.189 5.461-4.779 8.533-11.2 9.045-19.051l-268.565-219.52-71.765 57.877v187.861zM552.491 853.333v-832l-488.491 86.528v656.555l488.491 88.917zM404.928 435.669c-0.725 42.325-11.392 77.397-32.021 105.131-20.224 27.648-46.464 42.24-77.653 43.477-30.037-1.237-55.744-15.787-76.544-43.477-20.779-27.733-31.147-62.848-31.701-105.131 0.533-41.728 11.477-76.48 32.235-104.256 20.821-27.648 46.443-42.325 76.587-43.947 31.147 1.323 57.365 15.851 78.165 43.733 20.779 27.925 31.701 62.741 32.256 104.469h-1.323zM291.221 528.384c15.723-0.747 28.949-9.557 39.467-26.773 10.389-17.216 15.872-39.040 15.872-65.451 0-26.944-5.44-48.832-15.851-66.155-10.987-17.344-24.064-26.304-39.957-26.304s-28.971 8.427-39.893 25.771c-10.944 17.344-15.872 39.232-15.872 65.536 0 26.325 4.928 48.213 15.872 65.003 10.347 16.811 23.531 25.771 39.381 26.923l0.981 1.451z" />
<glyph unicode="&#xe915;" glyph-name="bas-024" d="M409.237 222.72l-38.891-38.613c-15.705-15.468-37.276-25.019-61.077-25.019s-45.372 9.551-61.088 25.030l0.011-0.011c-15.441 15.271-25.003 36.458-25.003 59.879 0 0.076 0 0.153 0 0.229v-0.012c0 22.699 8.917 43.947 25.003 60.096l143.040 141.845c29.611 29.419 85.397 72.704 126.037 32.384 8.528-8.156 20.114-13.176 32.872-13.176 26.286 0 47.595 21.309 47.595 47.595 0 12.88-5.117 24.566-13.428 33.135l0.012-0.012c-69.013 68.544-171.157 55.893-260.096-32.405l-143.040-141.867c-32.841-32.392-53.185-77.381-53.185-127.123 0-0.174 0-0.347 0.001-0.52v0.027c0-0.135-0.001-0.295-0.001-0.454 0-49.747 20.343-94.742 53.164-127.121l0.020-0.020c32.768-32.502 77.895-52.587 127.713-52.587 0.138 0 0.277 0 0.415 0h-0.022c0.144 0 0.315-0.001 0.486-0.001 49.793 0 94.892 20.095 127.631 52.619l38.923 38.625c18.667 18.496 18.773 48.576 0.235 67.2-8.645 8.672-20.603 14.038-33.814 14.038-13.062 0-24.899-5.245-33.519-13.745l0.006 0.006zM842.773 773.973c-74.261 73.643-178.048 77.632-246.677 9.472l-48.427-48.107c-8.139-8.522-13.148-20.093-13.148-32.834 0-26.274 21.299-47.573 47.573-47.573 12.619 0 24.091 4.913 32.607 12.932l-0.024-0.023 48.469 48.064c35.52 35.328 82.133 20.693 112.619-9.472 15.467-15.294 25.045-36.516 25.045-59.974 0-0.043 0-0.085 0-0.128v0.007c0-0.041 0-0.089 0-0.138 0-23.433-9.58-44.629-25.036-59.885l-0.009-0.009-152.64-151.403c-69.803-69.163-102.528-36.757-116.501-22.891-8.591 8.539-20.431 13.817-33.504 13.817-13.19 0-25.125-5.372-33.736-14.048l-0.003-0.003c-8.555-8.587-13.845-20.433-13.845-33.515 0-13.198 5.384-25.139 14.076-33.745l0.004-0.004c32.064-31.787 68.629-47.509 106.944-47.509 46.891 0 96.469 23.616 143.659 70.4l152.64 151.36c32.819 32.483 53.141 77.537 53.141 127.338 0 0.083 0 0.165 0 0.248v-0.013c0 0.098 0 0.214 0 0.33 0 49.807-20.359 94.859-53.208 127.288l-0.019 0.019z" />
<glyph unicode="&#xe916;" glyph-name="rightarrow" d="M330.752 195.285c-6.671-7.336-10.755-17.127-10.755-27.872s4.084-20.536 10.785-27.906l-0.030 0.034c6.421-7.101 15.668-11.544 25.952-11.544s19.531 4.443 25.925 11.513l0.027 0.030 289.259 280.576c6.671 7.336 10.755 17.127 10.755 27.872s-4.084 20.536-10.785 27.906l0.030-0.034-289.259 280.597c-6.421 7.101-15.668 11.544-25.952 11.544s-19.531-4.443-25.925-11.513l-0.027-0.030c-6.671-7.336-10.755-17.127-10.755-27.872s4.084-20.536 10.785-27.906l-0.030 0.034 263.296-252.715-263.296-252.715z" />
<glyph unicode="&#xe917;" glyph-name="map" d="M512 771.918c161.583 0 292.571-130.988 292.571-292.571 0-107.729-97.531-240.076-292.571-397.061-195.041 156.985-292.571 289.332-292.571 397.061 0 161.583 130.988 292.571 292.571 292.571zM512 709.224c-126.955 0-229.878-102.922-229.878-229.878 0-76.863 75.065-184.508 229.878-315.768l16.572 14.211c143.611 124.865 213.305 227.516 213.305 301.558 0 126.955-102.922 229.878-229.878 229.878zM512 583.837c46.166 0 83.592-37.425 83.592-83.592s-37.425-83.592-83.592-83.592v0c-46.166 0-83.592 37.425-83.592 83.592s37.425 83.592 83.592 83.592v0z" />
<glyph unicode="&#xe922;" glyph-name="line" d="M809.387 641.28l-400.619-400.533-169.835 226.453c-5.9 7.807-15.167 12.8-25.6 12.8-17.673 0-32-14.327-32-32 0-7.24 2.404-13.919 6.458-19.28l-0.058 0.080 192-256c5.901-7.798 15.162-12.784 25.588-12.784 8.836 0 16.835 3.581 22.625 9.371l426.667 426.667c5.321 5.699 8.588 13.376 8.588 21.815 0 17.673-14.327 32-32 32-8.44 0-16.116-3.267-21.834-8.606l0.019 0.017z" />
</font>
</defs>
</svg>
